# Blender v3.0.1 OBJ File: ''
# www.blender.org
mtllib fish.mtl
o Cube
v 1.000000 1.000000 -1.000000
v 1.000000 -1.000000 -1.000000
v 1.000000 1.000000 1.000000
v 1.000000 -1.000000 1.000000
v -1.000000 1.000000 -1.000000
v -1.000000 -1.000000 -1.000000
v -1.000000 1.000000 1.000000
v -1.000000 -1.000000 1.000000
v -1.000000 -1.000000 1.000000
v -1.000000 1.000000 1.000000
v 1.000000 1.000000 1.000000
v 1.000000 -1.000000 1.000000
v -0.491110 -0.491110 1.446433
v -0.491110 0.491110 1.446433
v 0.491110 0.491110 1.446433
v 0.491110 -0.491110 1.446433
v -0.249502 -0.249502 3.292639
v -0.249502 0.249502 3.292639
v 0.249502 0.249502 3.292639
v 0.249502 -0.249502 3.292639
v -0.178967 -0.178967 3.781162
v -0.178967 0.178967 3.781162
v 0.178967 0.178967 3.781162
v 0.178967 -0.178967 3.781162
v 0.642297 -0.642297 -1.225713
v -0.642297 -0.642297 -1.225713
v 0.642297 0.642297 -1.225713
v -0.642297 0.642297 -1.225713
v 0.642297 -0.642297 -1.225713
v -0.642297 -0.642297 -1.225713
v 0.642297 0.642297 -1.225713
v -0.642297 0.642297 -1.225713
v 0.093440 -0.093440 -2.225713
v -0.093440 -0.093440 -2.225713
v 0.093440 0.093440 -2.225713
v -0.093440 0.093440 -2.225713
v 0.093440 -0.093440 -3.236130
v -0.093440 -0.093440 -3.236130
v 0.093440 0.093440 -3.236130
v -0.093440 0.093440 -3.236130
v 0.034290 0.175710 -2.916319
v -0.034290 0.175710 -2.916319
v 0.034290 0.175710 -2.545524
v -0.034290 0.175710 -2.545524
v 0.034290 2.476269 -2.916319
v -0.034290 2.476269 -2.916319
v 0.034290 2.476269 -2.545524
v -0.034290 2.476269 -2.545524
vt 0.625000 0.500000
vt 0.875000 0.500000
vt 0.875000 0.750000
vt 0.625000 0.750000
vt 0.625000 0.000000
vt 0.375000 0.000000
vt 0.375000 0.000000
vt 0.625000 0.000000
vt 0.625000 0.250000
vt 0.375000 0.250000
vt 0.125000 0.500000
vt 0.375000 0.500000
vt 0.375000 0.750000
vt 0.125000 0.750000
vt 0.625000 0.250000
vt 0.375000 0.250000
vt 0.625000 0.750000
vt 0.875000 0.750000
vt 0.875000 0.750000
vt 0.625000 0.750000
vt 0.375000 0.750000
vt 0.125000 0.750000
vt 0.875000 0.750000
vt 0.625000 0.750000
vt 0.375000 0.000000
vt 0.625000 0.000000
vt 0.375000 0.750000
vt 0.125000 0.750000
vt 0.125000 0.750000
vt 0.375000 0.750000
vt 0.375000 0.750000
vt 0.125000 0.750000
vt 0.375000 0.000000
vt 0.625000 0.000000
vt 0.625000 0.750000
vt 0.625000 1.000000
vt 0.375000 1.000000
vt 0.875000 0.750000
vt 0.375000 0.000000
vt 0.625000 0.000000
vt 0.375000 0.500000
vt 0.125000 0.500000
vt 0.125000 0.500000
vt 0.375000 0.500000
vt 0.625000 0.500000
vt 0.875000 0.500000
vt 0.875000 0.500000
vt 0.625000 0.500000
vt 0.625000 0.500000
vt 0.875000 0.500000
vt 0.625000 0.250000
vt 0.375000 0.250000
vt 0.375000 0.250000
vt 0.625000 0.250000
vt 0.625000 0.250000
vt 0.375000 0.250000
vt 0.375000 0.500000
vt 0.125000 0.500000
vt 0.625000 0.500000
vt 0.375000 0.500000
vt 0.125000 0.500000
vt 0.625000 0.500000
vt 0.625000 0.500000
vt 0.625000 0.250000
vt 0.625000 0.250000
vt 0.625000 0.500000
vt 0.875000 0.500000
vt 0.625000 0.250000
vt 0.875000 0.500000
vt 0.625000 0.500000
vt 0.875000 0.500000
vt 0.625000 0.250000
vn 0.0000 1.0000 0.0000
vn 0.0000 0.0000 1.0000
vn -1.0000 0.0000 0.0000
vn 0.0000 -1.0000 0.0000
vn 1.0000 0.0000 0.0000
vn -0.5336 0.0000 -0.8457
vn 0.0000 0.6595 0.7517
vn 0.0000 0.9915 0.1298
vn -0.6595 0.0000 0.7517
vn 0.0000 -0.6595 0.7517
vn 0.6595 0.0000 0.7517
vn 0.0000 -0.9897 0.1429
vn -0.9915 0.0000 0.1298
vn 0.0000 -0.9915 0.1298
vn 0.9915 0.0000 0.1298
vn 0.9897 0.0000 0.1429
vn 0.0000 0.9897 0.1429
vn -0.9897 0.0000 0.1429
vn 0.0000 -0.5336 -0.8457
vn 0.0000 0.5336 -0.8457
vn 0.5336 0.0000 -0.8457
vn 0.0000 0.8766 -0.4811
vn 0.8766 0.0000 -0.4811
vn -0.8766 0.0000 -0.4811
vn 0.0000 -0.8766 -0.4811
vn 0.0000 0.0000 -1.0000
vn 0.5415 0.8407 0.0000
vn 0.0000 0.9930 -0.1183
vn 0.0000 0.9930 0.1183
vn -0.5415 0.8407 0.0000
usemtl Material
s off
f 1/1/1 5/2/1 7/3/1 3/4/1
f 7/5/2 8/6/2 9/7/2 10/8/2
f 8/6/3 7/5/3 5/9/3 6/10/3
f 6/11/4 2/12/4 4/13/4 8/14/4
f 2/12/5 1/1/5 3/4/5 4/13/5
f 6/10/6 5/9/6 28/15/6 26/16/6
f 11/17/7 10/18/7 14/19/7 15/20/7
f 8/14/2 4/13/2 12/21/2 9/22/2
f 3/4/2 7/3/2 10/18/2 11/17/2
f 4/13/2 3/4/2 11/17/2 12/21/2
f 15/20/8 14/19/8 18/23/8 19/24/8
f 10/8/9 9/7/9 13/25/9 14/26/9
f 9/22/10 12/21/10 16/27/10 13/28/10
f 12/21/11 11/17/11 15/20/11 16/27/11
f 17/29/12 20/30/12 24/31/12 21/32/12
f 14/26/13 13/25/13 17/33/13 18/34/13
f 13/28/14 16/27/14 20/30/14 17/29/14
f 16/27/15 15/20/15 19/24/15 20/30/15
f 24/31/2 23/35/2 22/36/2 21/37/2
f 20/30/16 19/24/16 23/35/16 24/31/16
f 19/24/17 18/23/17 22/38/17 23/35/17
f 18/34/18 17/33/18 21/39/18 22/40/18
f 25/41/2 26/42/2 30/43/2 29/44/2
f 2/12/19 6/11/19 26/42/19 25/41/19
f 5/2/20 1/1/20 27/45/20 28/46/20
f 1/1/21 2/12/21 25/41/21 27/45/21
f 32/47/22 31/48/22 35/49/22 36/50/22
f 28/46/2 27/45/2 31/48/2 32/47/2
f 27/45/2 25/41/2 29/44/2 31/48/2
f 26/16/2 28/15/2 32/51/2 30/52/2
f 34/53/3 36/54/3 40/55/3 38/56/3
f 31/48/23 29/44/23 33/57/23 35/49/23
f 30/52/24 32/51/24 36/54/24 34/53/24
f 29/44/25 30/43/25 34/58/25 33/57/25
f 38/56/26 40/55/26 39/59/26 37/60/26
f 33/57/4 34/58/4 38/61/4 37/60/4
f 35/49/27 39/59/27 44/62/27 42/63/27
f 35/49/5 33/57/5 37/60/5 39/59/5
f 44/62/2 43/64/2 47/65/2 48/66/2
f 39/59/28 40/55/28 43/64/28 44/62/28
f 36/50/29 35/49/29 42/63/29 41/67/29
f 40/55/30 36/54/30 41/68/30 43/64/30
f 45/69/1 46/70/1 48/66/1 47/71/1
f 43/64/5 41/68/5 45/72/5 47/65/5
f 41/67/26 42/63/26 46/70/26 45/69/26
f 42/63/3 44/62/3 48/66/3 46/70/3
